<svg xmlns="http://www.w3.org/2000/svg" width="436" height="436" viewBox="0 0 436 436">
<g>
<path d="M 179.80 318.80 C178.61,319.99 177.31,320.01 154.75,319.25 L 145.00 318.93 L 145.00 140.90 L 199.25 141.23 C251.66,141.55 253.77,141.64 261.50,143.78 C289.73,151.60 304.97,170.27 304.97,197.00 C304.97,229.17 281.65,250.26 242.11,253.87 C236.82,254.35 220.91,254.51 206.75,254.23 L 181.00 253.73 L 181.00 285.66 C181.00,309.17 180.68,317.92 179.80,318.80 ZM 242.25 403.01 C153.84,403.02 80.60,403.15 79.50,403.30 C78.40,403.45 67.94,403.44 56.25,403.27 L 35.00 402.96 L 35.00 36.00 L 294.50 36.04 L 299.76 41.10 C302.65,43.88 304.76,46.57 304.45,47.08 C304.11,47.63 252.74,48.00 175.94,48.00 L 48.00 48.00 L 48.00 391.01 L 219.25 390.75 L 390.50 390.50 L 391.00 258.21 L 391.50 125.91 L 397.25 131.04 L 403.00 136.16 L 403.00 403.00 ZM 403.65 117.84 C404.13,126.62 403.99,130.00 403.17,130.00 C401.53,130.00 342.46,76.24 310.00,45.18 L 300.50 36.10 L 351.75 36.05 L 403.00 36.00 L 403.00 70.84 C403.00,90.01 403.29,111.16 403.65,117.84 ZM 181.00 167.00 L 181.00 228.00 L 208.25 227.98 C237.09,227.96 244.95,227.11 252.76,223.12 C274.04,212.27 274.71,182.75 253.92,172.26 C245.00,167.77 238.41,167.02 207.75,167.01 ZM 100.98 107.17 C98.28,109.18 92.78,110.20 89.50,109.31 C82.78,107.48 79.00,101.25 79.00,91.99 C79.00,80.86 84.02,75.42 94.15,75.57 C102.96,75.71 107.31,81.09 107.43,92.00 C107.51,99.15 105.54,103.77 100.98,107.17 ZM 89.66 102.95 C91.09,104.08 92.84,105.00 93.55,105.00 C95.29,105.00 99.86,99.42 100.63,96.35 C101.55,92.68 100.24,84.92 98.34,82.82 C95.88,80.10 89.46,80.36 87.60,83.25 C83.87,89.04 84.94,99.23 89.66,102.95 ZM 129.77 92.25 L 129.50 108.50 L 124.00 109.13 L 124.00 96.57 C124.00,88.57 123.62,84.00 122.96,84.00 C122.40,84.00 120.85,84.71 119.54,85.57 C117.29,87.04 117.07,87.00 115.98,84.96 C115.34,83.76 115.19,82.47 115.66,82.09 C120.50,78.07 124.35,76.00 126.96,76.00 L 130.05 76.00 Z" fill="rgb(16,16,16)"/>
<path d="M 0.00 218.00 L 0.00 0.00 L 218.00 0.00 L 436.00 0.00 L 436.00 218.00 L 436.00 436.00 L 218.00 436.00 L 0.00 436.00 L 0.00 218.00 ZM 242.25 403.01 L 403.00 403.00 L 403.00 269.58 L 403.00 136.16 L 397.25 131.04 L 391.50 125.91 L 391.00 258.21 L 390.50 390.50 L 219.25 390.75 L 48.00 391.01 L 48.00 219.50 L 48.00 48.00 L 175.94 48.00 C252.74,48.00 304.11,47.63 304.45,47.08 C304.76,46.57 302.65,43.88 299.76,41.10 L 294.50 36.04 L 164.75 36.02 L 35.00 36.00 L 35.00 219.48 L 35.00 402.96 L 56.25 403.27 C67.94,403.44 78.40,403.45 79.50,403.30 C80.60,403.15 153.84,403.02 242.25,403.01 ZM 179.80 318.80 C180.68,317.92 181.00,309.17 181.00,285.66 L 181.00 253.73 L 206.75 254.23 C220.91,254.51 236.82,254.35 242.11,253.87 C281.65,250.26 304.97,229.17 304.97,197.00 C304.97,170.27 289.73,151.60 261.50,143.78 C253.77,141.64 251.66,141.55 199.25,141.23 L 145.00 140.90 L 145.00 229.92 L 145.00 318.93 L 154.75 319.25 C177.31,320.01 178.61,319.99 179.80,318.80 ZM 403.65 117.84 C403.29,111.16 403.00,90.01 403.00,70.84 L 403.00 36.00 L 351.75 36.05 L 300.50 36.10 L 310.00 45.18 C342.46,76.24 401.53,130.00 403.17,130.00 C403.99,130.00 404.13,126.62 403.65,117.84 ZM 100.98 107.17 C105.54,103.77 107.51,99.15 107.43,92.00 C107.31,81.09 102.96,75.71 94.15,75.57 C84.02,75.42 79.00,80.86 79.00,91.99 C79.00,101.25 82.78,107.48 89.50,109.31 C92.78,110.20 98.28,109.18 100.98,107.17 ZM 129.77 92.25 L 130.05 76.00 L 126.96 76.00 C124.35,76.00 120.50,78.07 115.66,82.09 C115.19,82.47 115.34,83.76 115.98,84.96 C117.07,87.00 117.29,87.04 119.54,85.57 C120.85,84.71 122.40,84.00 122.96,84.00 C123.62,84.00 124.00,88.57 124.00,96.57 L 124.00 109.13 L 126.75 108.82 L 129.50 108.50 L 129.77 92.25 ZM 181.00 197.50 L 181.00 167.00 L 207.75 167.01 C238.41,167.02 245.00,167.77 253.92,172.26 C274.71,182.75 274.04,212.27 252.76,223.12 C244.95,227.11 237.09,227.96 208.25,227.98 L 181.00 228.00 L 181.00 197.50 ZM 89.66 102.95 C84.94,99.23 83.87,89.04 87.60,83.25 C89.46,80.36 95.88,80.10 98.34,82.82 C100.24,84.92 101.55,92.68 100.63,96.35 C99.86,99.42 95.29,105.00 93.55,105.00 C92.84,105.00 91.09,104.08 89.66,102.95 Z" fill="rgb(253,253,253)"/>
</g>
</svg>